<svg width="227" height="171" viewBox="0 0 227 171" fill="none" xmlns="http://www.w3.org/2000/svg">
<path d="M32.2832 174.129C35.7432 178.968 40.8612 182.236 46.4951 183.207C46.7284 183.247 46.9581 183.248 47.1902 183.28L47.1909 183.282C47.3239 184.799 47.7373 186.286 48.4075 187.661C49.9919 190.864 52.6491 193.374 55.8518 194.697C59.0539 196.018 62.5667 196.056 65.6929 194.799C66.0273 194.664 66.3576 194.514 66.6838 194.349L66.6846 194.351C67.2724 194.046 67.8402 193.701 68.3852 193.32C70.381 195.688 73.1104 197.243 76.0587 197.691C79.0051 198.14 81.9629 197.45 84.3721 195.754C86.779 194.057 88.4707 191.47 89.1216 188.486C91.6658 190.179 94.68 190.864 97.5921 190.412C100.503 189.958 103.11 188.4 104.92 186.031C106.729 183.66 107.614 180.645 107.406 177.555C108.055 177.451 108.696 177.307 109.325 177.118C109.674 177.011 110.013 176.891 110.345 176.756C113.468 175.486 115.972 173.019 117.358 169.841C118.747 166.664 118.916 163.011 117.833 159.604C117.36 158.151 116.623 156.794 115.665 155.611C119.325 150.934 120.903 144.808 120.028 138.682C119.502 135.05 117.954 131.621 115.582 128.833C113.209 126.045 110.12 124.027 106.713 123.037C106.493 117.616 104.053 112.462 100.013 108.882C97.0413 105.975 93.3297 104.042 89.3669 103.336C87.6109 103.046 85.8298 103.14 84.1385 103.608C81.5976 100.423 78.0223 98.3244 74.1469 97.746C70.2731 97.1669 66.3931 98.1505 63.3049 100.494C60.2177 102.838 58.1567 106.364 57.5468 110.349C54.3389 107.899 50.4016 106.79 46.547 107.251C42.6923 107.711 39.2151 109.707 36.8331 112.824C34.4511 115.941 33.3443 119.942 33.7412 124.003C32.921 124.427 32.1538 124.953 31.4594 125.57C28.0384 129.005 26.0741 133.738 25.9792 138.786C25.5268 144.181 27.359 149.61 30.9989 153.657C29.2438 156.732 28.4275 160.323 28.6547 163.969C28.8844 167.617 30.147 171.152 32.2826 174.13L32.2832 174.129ZM68.4655 103.272C70.3905 102.484 72.5232 102.332 74.5831 102.836C76.6437 103.341 78.5326 104.477 80.0068 106.097C79.9054 106.203 79.7931 106.297 79.6963 106.409C78.0912 108.331 77.2509 110.836 77.3401 113.436C75.9023 113.27 74.4592 113.428 73.112 113.901C72.5181 114.107 72.0381 114.557 71.7773 115.148C71.5165 115.739 71.4969 116.423 71.7226 117.05C71.9483 117.678 72.4025 118.196 72.9824 118.487C73.5613 118.781 74.2207 118.824 74.8117 118.61C76.1204 118.145 77.576 118.247 78.8562 118.899C80.1357 119.548 81.1374 120.693 81.6386 122.08C81.8629 122.703 82.313 123.221 82.8894 123.514C83.4659 123.806 84.1226 123.853 84.7134 123.643L84.8041 123.609L84.8024 123.61C85.9765 123.133 86.5436 121.761 86.0885 120.497C85.3535 118.464 84.0424 116.69 82.3334 115.422C81.7816 113.465 82.1372 111.389 83.2927 109.82C84.753 108.361 86.8373 107.777 88.867 108.255C91.8604 108.81 94.6587 110.291 96.8943 112.506C99.7483 115.009 101.569 118.557 101.958 122.363C101.294 122.359 100.635 122.393 99.9786 122.465C94.9327 123.061 90.662 126.383 88.7208 131.221C88.4811 131.821 88.4847 132.504 88.7284 133.122C88.9728 133.741 89.4396 134.242 90.0245 134.516C90.6112 134.79 91.2667 134.814 91.8505 134.583C92.4325 134.352 92.8936 133.885 93.1325 133.283C94.4339 130.033 97.3049 127.803 100.693 127.406C104.058 127.009 107.492 128.034 110.235 130.253C112.978 132.47 114.805 135.702 115.315 139.232C115.853 143.057 115.169 146.91 113.367 150.189C111.568 153.466 108.752 155.986 105.362 157.354C103.885 155.572 101.901 154.332 99.7224 153.828C98.4293 153.536 97.1936 154.383 96.9643 155.722C96.7343 157.058 97.594 158.384 98.8868 158.681C100.267 158.994 101.496 159.863 102.297 161.095C103.101 162.326 103.415 163.822 103.168 165.25C103.057 165.893 103.199 166.567 103.56 167.123C103.923 167.678 104.474 168.07 105.096 168.211C106.392 168.506 107.628 167.661 107.859 166.32C108.108 164.835 108.037 163.297 107.657 161.817C109.331 161.101 110.897 160.158 112.318 159.008C112.75 159.617 113.089 160.29 113.318 161.004C114.06 163.334 113.896 165.84 112.86 167.968C111.824 170.097 110.001 171.674 107.795 172.354C107.256 172.519 106.704 172.64 106.142 172.716C104.861 169.935 102.681 167.692 99.9994 166.394C97.3185 165.096 94.3168 164.833 91.5457 165.653C91.2932 165.732 91.0473 165.813 90.8045 165.911L90.8052 165.913C89.5965 166.401 89.0349 167.836 89.5536 169.12C90.0715 170.402 91.4725 171.044 92.6813 170.556C92.8188 170.5 92.9597 170.458 93.0543 170.428L93.056 170.427C94.8073 169.937 96.6965 170.146 98.3634 171.011C100.031 171.879 101.357 173.343 102.09 175.126C102.2 175.389 102.293 175.659 102.369 175.934C103.109 178.504 102.544 181.235 100.876 183.168C99.2074 185.098 96.6678 185.959 94.1533 185.444C91.637 184.93 89.4998 183.111 88.494 180.632L88.4914 180.621L88.4836 180.611L81.5461 163.443L81.5434 163.431L81.5451 163.431C80.1196 159.898 81.6623 155.945 84.9918 154.595C86.2005 154.107 86.7614 152.67 86.2434 151.388C85.7255 150.106 84.3238 149.462 83.115 149.951C80.9485 150.83 79.1321 152.41 77.9197 154.469L62.9464 117.413C61.8529 114.697 61.8197 111.683 62.854 109.032C63.8892 106.38 65.9069 104.31 68.4655 103.272ZM30.7364 139.222C30.7672 135.486 32.1719 131.964 34.6632 129.381C35.727 128.333 37.1605 127.785 38.6552 127.858C40.9487 128.28 42.9122 129.913 43.8357 132.164C44.4688 133.389 45.9118 133.891 47.065 133.284C48.2182 132.678 48.6442 131.191 48.0171 129.962C46.3222 126.134 42.8415 123.448 38.8745 122.907C38.7268 122.893 38.5818 122.92 38.4353 122.914L38.437 122.914C38.3671 120.722 38.9367 118.588 40.067 116.792C41.199 114.994 42.8388 113.617 44.7727 112.846C47.3343 111.815 50.2249 111.902 52.8125 113.091C55.3977 114.278 57.4681 116.47 58.5668 119.184L68.9639 144.914C70.3877 148.447 68.8467 152.4 65.5172 153.749C64.3068 154.239 63.7476 155.675 64.2656 156.957C64.7835 158.238 66.1835 158.883 67.394 158.394C69.5588 157.515 71.3751 155.935 72.5865 153.879L84.1082 182.393C85.1159 184.882 84.8395 187.682 83.3805 189.804C81.9216 191.927 79.4858 193.068 76.9348 192.826C74.3857 192.583 72.0814 190.99 70.8419 188.612C70.7158 188.378 70.6059 188.135 70.508 187.888C69.9044 186.36 69.7658 184.693 70.1162 183.121C70.4657 181.547 71.2831 180.149 72.4553 179.12C73.5436 180.567 74.9628 181.709 76.5748 182.434C77.8014 182.977 79.1797 182.395 79.65 181.134C80.1221 179.874 79.5081 178.413 78.2791 177.869C76.9707 177.29 75.9151 176.202 75.3443 174.843C74.7752 173.484 74.7368 171.966 75.2392 170.624C75.4701 170.018 75.4551 169.331 75.1988 168.716C74.9425 168.101 74.4662 167.607 73.8748 167.345C73.2833 167.084 72.6236 167.074 72.0457 167.32C71.467 167.564 71.0158 168.046 70.7915 168.654C70.1007 170.497 69.9455 172.533 70.3451 174.514C68.1555 176.006 66.532 178.235 65.7313 180.851C64.9303 183.468 64.9959 186.323 65.9191 188.97C65.4612 189.308 64.9767 189.604 64.4703 189.861C62.4132 190.904 60.0088 191.033 57.787 190.222C55.5663 189.409 53.7085 187.724 52.6223 185.535C52.296 184.869 52.0717 184.157 51.9587 183.428C53.8994 183.255 55.7954 182.801 57.5957 182.08C59.2723 181.4 60.8494 180.499 62.2922 179.397C63.3341 178.603 63.5249 177.052 62.7208 175.932C61.915 174.812 60.4203 174.549 59.3784 175.343C55.8906 178.011 51.4732 179.078 47.0985 178.309C42.722 177.542 38.7478 175.003 36.049 171.252C33.9728 168.358 33.0499 164.769 33.4809 161.271C33.9138 157.772 35.6656 154.654 38.3539 152.598C40.566 150.927 43.3943 150.346 46.1323 150.998C46.0662 152.941 46.5259 154.885 47.4592 156.609C48.0623 157.72 49.3469 158.221 50.4545 157.775C50.5428 157.74 50.6306 157.698 50.7145 157.651C51.2595 157.343 51.6592 156.817 51.8218 156.188C51.9843 155.559 51.8968 154.878 51.5799 154.294C50.1177 151.6 50.9784 148.266 53.5056 146.847C54.6433 146.207 55.032 144.705 54.3717 143.492C53.7131 142.277 52.2548 141.811 51.1164 142.449C49.5593 143.332 48.2804 144.648 47.4129 146.26C43.2203 145.131 38.8389 145.969 35.4363 148.55C34.9151 148.952 34.417 149.385 33.9455 149.846C31.5858 146.831 30.4312 143.011 30.7371 139.223L30.7364 139.222Z" fill="#F15B5B" fill-opacity="0.5"/>
</svg>
