<svg width="54" height="58" viewBox="0 0 54 58" fill="none" xmlns="http://www.w3.org/2000/svg">
<path d="M44.7838 24.1641L39.8025 18.8138C39.381 18.3612 38.7671 18.1846 38.192 18.3501C37.6164 18.5156 37.1669 18.9984 37.0128 19.6166C36.8587 20.2343 37.0231 20.894 37.4442 21.3464L39.603 23.647H30.3209C29.7276 23.647 29.1793 23.9868 28.8826 24.5386C28.586 25.0905 28.586 25.7706 28.8826 26.3224C29.1793 26.8742 29.7276 27.214 30.3209 27.214H39.603L37.4442 29.5147C37.0231 29.9673 36.8587 30.6267 37.0128 31.2448C37.1669 31.8625 37.6164 32.3453 38.192 32.5108C38.7671 32.6763 39.3809 32.4998 39.8025 32.0475L44.7838 26.6973V26.6968C45.0981 26.3623 45.2748 25.9061 45.2748 25.4308C45.2748 24.9551 45.0981 24.4993 44.7838 24.1643V24.1641Z" fill="#F15B5B"/>
<path d="M36.9624 36.1346C36.5224 36.1346 36.0997 36.3222 35.7882 36.6567C35.4772 36.9913 35.3021 37.4448 35.3021 37.9179V43.2682H26.9997V16.5157C26.9968 15.9192 26.7162 15.3638 26.2524 15.0355L15.874 7.59841H35.3024V12.9487C35.3024 13.5859 35.6188 14.1748 36.1326 14.4935C36.6463 14.8122 37.2795 14.8121 37.7933 14.4935C38.307 14.1749 38.6234 13.5859 38.6234 12.9487V5.81457C38.6234 5.34153 38.4483 4.88796 38.1369 4.55341C37.8258 4.21932 37.4031 4.03125 36.9627 4.03125H10.3951C9.9547 4.03125 9.53241 4.21932 9.22093 4.55341C8.90947 4.88794 8.73438 5.3415 8.73438 5.81457V41.4846C8.73726 42.0811 9.01782 42.6369 9.48172 42.9647L24.4266 53.6658C24.6718 53.8362 24.9544 53.934 25.2461 53.9499C25.5374 53.9654 25.8278 53.8981 26.0874 53.7552C26.3584 53.6083 26.5871 53.3844 26.7482 53.1074C26.9093 52.8308 26.9966 52.5117 27.0007 52.1856V46.8349H36.9638H36.9634C37.4038 46.8349 37.8265 46.6473 38.1376 46.3127C38.4491 45.9782 38.6242 45.5246 38.6242 45.0516V37.9175C38.6242 37.4444 38.4491 36.9909 38.1376 36.6563C37.8266 36.3218 37.4039 36.1341 36.9634 36.1341L36.9624 36.1346ZM23.6786 48.8504L12.0549 40.5212V9.14907L23.6786 17.4778V48.8504Z" fill="#F15B5B"/>
</svg>
