<svg width="59" height="61" viewBox="0 0 59 61" fill="none" xmlns="http://www.w3.org/2000/svg">
<path d="M59 6.10155C59 7.55303 58.4592 9.00394 57.388 10.1039L52.4632 15.1718L44.6562 7.15596L49.581 2.08799C51.7234 -0.123082 55.2347 -0.123082 57.388 2.08799C58.4592 3.18787 59 4.65064 59 6.10155Z" fill="#F15B5B"/>
<path d="M50.8938 16.7815L9.44082 59.3438C7.27644 61.5549 3.7653 61.5549 1.62294 59.3438C0.574188 58.2783 0 56.8493 0 55.3415C0 53.8225 0.574244 52.3935 1.62294 51.328L43.0857 8.76562L50.8938 16.7815Z" fill="#F15B5B"/>
<path d="M52.6842 42.0607C52.6842 45.8177 49.7177 48.863 46.0586 48.863C42.4 48.863 39.4336 45.8176 39.4336 42.0607C39.4336 38.3037 42.4 35.2578 46.0586 35.2578C49.7177 35.2578 52.6842 38.3037 52.6842 42.0607Z" fill="#F15B5B"/>
<path d="M31.8139 5.66927C31.8139 8.80009 29.3422 11.338 26.293 11.338C23.2438 11.338 20.7715 8.80009 20.7715 5.66927C20.7715 2.53844 23.2438 0 26.293 0C29.3422 0 31.8139 2.53844 31.8139 5.66927Z" fill="#F15B5B"/>
<path d="M11.9381 24.9483C11.9381 26.8268 10.4548 28.3492 8.62529 28.3492C6.79573 28.3492 5.3125 26.8268 5.3125 24.9483C5.3125 23.0698 6.79573 21.5469 8.62529 21.5469C10.4548 21.5469 11.9381 23.0698 11.9381 24.9483Z" fill="#F15B5B"/>
</svg>
