<svg width="41" height="49" viewBox="0 0 41 49" fill="none" xmlns="http://www.w3.org/2000/svg">
<path d="M41 10.585C41.0006 8.91145 40.4413 7.30703 39.4458 6.12893L35.8637 1.84975H35.8632C34.8735 0.665413 33.5304 0 32.1295 0C30.7285 0 29.3855 0.665413 28.3952 1.84975L4.5463 30.3593L3.40393 31.733L3.16331 32.9678L0 49L13.4204 45.2306L14.4541 44.9335L15.5964 43.5688L39.4527 15.0787C40.4534 13.8902 41.0105 12.2705 40.9994 10.5853L41 10.585ZM13.8017 41.4048L6.33369 32.4932L23.7872 11.6324L31.2708 20.5723L13.8017 41.4048ZM37.6654 12.943L33.0571 18.448L25.5736 9.50809L30.1818 4.00305H30.1824C30.7065 3.40811 31.4017 3.07644 32.1247 3.07644C32.8477 3.07644 33.5435 3.40811 34.0676 4.00305L37.6497 8.28223C38.1627 8.89997 38.4502 9.73398 38.4502 10.6032C38.4502 11.4725 38.1627 12.3072 37.6497 12.9242L37.6654 12.943Z" fill="#EF4444"/>
</svg>
