<svg width="145" height="100" viewBox="0 0 145 100" fill="none" xmlns="http://www.w3.org/2000/svg">
<path d="M42.563 131.697L76.2162 113.964C77.7532 113.154 79.4193 112.96 80.7736 113.412C82.092 113.846 82.9261 114.829 83.0308 116.087L83.7601 123.912C84.059 127.194 86.1956 129.729 89.6002 130.855C93.1007 132.024 97.3385 131.511 101.209 129.472L108.778 125.484C112.647 123.445 115.448 120.25 116.482 116.691C117.478 113.245 116.594 110.049 114.057 107.948L108.015 102.922C107.029 102.11 106.697 100.881 107.085 99.5482C107.488 98.1529 108.599 96.9011 110.117 96.1013L143.77 78.3689C144.642 77.9093 145.081 76.9943 144.723 76.3144L131.472 51.1637C130.489 49.2967 128.45 48.189 125.864 48.1096C123.224 48.0212 120.489 49.0384 118.338 50.8923L110.789 57.4032C108.405 59.4551 105.341 60.5877 102.393 60.514C99.5563 60.4192 97.3131 59.1971 96.2384 57.1575L93.2571 51.4994C92.1817 49.4586 92.4426 46.9187 93.9683 44.5251C95.5665 42.0373 98.2321 40.1526 101.281 39.3588L110.92 36.813C113.645 36.0978 116.042 34.3905 117.47 32.1789C118.867 30.0008 119.105 27.6933 118.122 25.8264L104.861 0.660593C104.511 -0.00473468 103.519 -0.18483 102.628 0.284837L68.9927 18.008C67.4556 18.8178 65.7895 19.012 64.4353 18.5601C63.1169 18.1266 62.2827 17.1427 62.1781 15.8849L61.4488 8.0597C61.1498 4.77829 59.0133 2.24283 55.6086 1.11683C52.1082 -0.0518969 47.8703 0.461085 44.0003 2.50029L36.4311 6.48863C32.5614 8.52764 29.7605 11.7222 28.7268 15.2813C27.7312 18.7274 28.6146 21.9232 31.1515 24.0238L37.1936 29.0497C38.1797 29.8618 38.5119 31.0915 38.1241 32.424C37.7205 33.8193 36.6098 35.071 35.092 35.8708L1.41957 53.6134C0.547359 54.073 0.108625 54.9879 0.466886 55.6678L13.7266 80.8325C14.7103 82.6995 16.7485 83.8071 19.3348 83.8866C21.9747 83.9749 24.7103 82.9578 26.8604 81.1038L34.4099 74.5929C36.7941 72.5411 39.8578 71.4084 42.8057 71.4821C45.6426 71.577 47.8858 72.7991 48.9604 74.8387L51.9418 80.4967C53.0171 82.5376 52.7562 85.0774 51.2306 87.471C49.6323 89.9588 46.9668 91.8436 43.9179 92.6373L34.2791 95.1832C31.5534 95.8984 29.1567 97.6056 27.7289 99.8172C26.3321 101.995 26.0935 104.303 27.0772 106.17L40.3369 131.334C40.7072 131.991 41.6908 132.156 42.563 131.697ZM30.2637 104.492C29.692 103.407 29.8215 102.044 30.6476 100.759C31.4952 99.4252 32.9252 98.4122 34.5691 97.9903L44.2079 95.4444C48.357 94.3491 51.9715 91.7794 54.1289 88.4236C56.2452 85.1253 56.6077 81.6258 55.1209 78.8041L52.1395 73.1461C50.6527 70.3243 47.5609 68.6435 43.6727 68.5293C39.6581 68.4069 35.5025 69.9501 32.2725 72.7429L24.723 79.2539C23.4381 80.3567 21.794 80.9635 20.2221 80.923C18.6949 80.8777 17.5054 80.2287 16.926 79.1292L4.30503 55.1803L36.3654 38.2871C38.9071 36.9478 40.7683 34.8203 41.4515 32.4822C42.1115 30.1934 41.5378 28.0917 39.8527 26.6876L33.8106 21.6617C31.965 20.1385 31.3302 17.8282 32.0655 15.3149C32.8084 12.7231 34.8888 10.3697 37.7351 8.86992L45.3043 4.88158C48.1504 3.38192 51.2487 3.00654 53.8257 3.84904C56.2954 4.67358 57.8421 6.50337 58.0742 8.87685L58.8035 16.702C59.0013 18.8713 60.4181 20.5474 62.6791 21.2969C64.9938 22.0555 67.7804 21.734 70.3427 20.3838L102.403 3.49065L115.022 27.4392C115.594 28.5241 115.464 29.8868 114.638 31.1721C113.791 32.5061 112.361 33.519 110.717 33.9409L101.078 36.4868C96.9287 37.5821 93.3142 40.1518 91.1568 43.5076C88.964 46.8462 88.6022 50.3468 90.089 53.1685L93.0703 58.8266C94.5572 61.6483 97.649 63.3292 101.537 63.4434C105.552 63.5657 109.707 62.0225 112.937 59.2297L120.487 52.7188C121.772 51.616 123.416 51.0092 124.988 51.0496C126.515 51.0949 127.705 51.744 128.284 52.8435L140.903 76.792L108.842 93.6852C106.301 95.0244 104.44 97.1519 103.756 99.4901C103.096 101.779 103.67 103.881 105.355 105.285L111.397 110.311C113.243 111.834 113.878 114.144 113.142 116.657C112.399 119.249 110.319 121.603 107.473 123.102L99.9035 127.091C97.0574 128.59 93.9592 128.966 91.3821 128.123C88.9124 127.299 87.3657 125.469 87.1336 123.095L86.4043 115.27C86.2065 113.101 84.7897 111.425 82.5287 110.675C80.214 109.917 77.4274 110.238 74.8651 111.588L42.8047 128.482L30.1887 104.532L30.2637 104.492Z" fill="#F15B5B" fill-opacity="0.5"/>
</svg>
